<?xml version="1.0" encoding="UTF-8" standalone="no"?>
<svg width="1000px" height="400px" viewBox="0 0 1000 400" version="1.1" xmlns="http://www.w3.org/2000/svg" xmlns:xlink="http://www.w3.org/1999/xlink" xmlns:sketch="http://www.bohemiancoding.com/sketch/ns">
    <title>Untitled</title>
    <description>Created with Sketch (http://www.bohemiancoding.com/sketch)</description>
    <defs></defs>
    <g id="Page-1" stroke="none" stroke-width="1" fill="none" fill-rule="evenodd" sketch:type="MSPage">
        <rect id="Rectangle-1" fill="#ECF0F1" sketch:type="MSShapeGroup" x="-100" y="1" width="1200" height="400"></rect>
        <g id="left-window" sketch:type="MSLayerGroup" transform="translate(20.000000, 167.000000)">
            <rect id="Rectangle-4" stroke="#979797" fill="#D8D8D8" sketch:type="MSShapeGroup" x="0" y="0" width="508" height="259" rx="8"></rect>
            <rect id="Rectangle-2" fill="#2C3E50" sketch:type="MSShapeGroup" x="14" y="33" width="480" height="200"></rect>
            <rect id="Rectangle-3" fill="#494949" sketch:type="MSShapeGroup" x="14" y="13" width="480" height="20"></rect>
            <path d="M26,28 C28.7614239,28 31,25.7614239 31,23 C31,20.2385761 28.7614239,18 26,18 C23.2385761,18 21,20.2385761 21,23 C21,25.7614239 23.2385761,28 26,28 Z" id="Oval-1" fill="#E74C3C" sketch:type="MSShapeGroup"></path>
            <circle id="Oval-1" fill="#F1C40F" sketch:type="MSShapeGroup" cx="47" cy="23" r="5"></circle>
            <circle id="Oval-1" fill="#2ECC71" sketch:type="MSShapeGroup" cx="68" cy="23" r="5"></circle>
            <g id="Logo" transform="translate(21.000000, 40.000000)" sketch:type="MSShapeGroup">
                <path d="M8,6 L8,19.9736328 L14,26 L14,6 L8,6 Z" id="Rectangle-4" fill="#3498DB" transform="translate(11.000000, 16.000000) rotate(-90.000000) translate(-11.000000, -16.000000) "></path>
                <path d="M15,6.03942871 L15,12.8890381 L21,19 L21,0 L15,6.03942871 Z" id="Rectangle-4" fill="#2980B9" transform="translate(18.000000, 9.500000) rotate(-180.000000) translate(-18.000000, -9.500000) "></path>
                <path d="M7.5,-1.47070312 L7.5,7.44481706 L13.5,13.4356689 L13.5,-7.5 L7.5,-1.47070312 Z" id="Rectangle-4" fill="#3498DB" transform="translate(10.500000, 3.000000) rotate(-270.000000) translate(-10.500000, -3.000000) "></path>
                <path d="M0,6.03027344 L0,10.4033203 L0,23 L6,23 L6,0 L0,6.03027344 Z" id="Rectangle-4" fill="#2980B9"></path>
            </g>
        </g>
        <g id="right-window" sketch:type="MSLayerGroup" transform="translate(278.000000, 167.000000)">
            <rect id="Rectangle-4" stroke="#979797" fill="#D8D8D8" sketch:type="MSShapeGroup" x="194" y="0" width="508" height="259" rx="8"></rect>
            <rect id="Rectangle-2" fill="#2C3E50" sketch:type="MSShapeGroup" x="208" y="33" width="480" height="200"></rect>
            <rect id="Rectangle-3" fill="#494949" sketch:type="MSShapeGroup" x="208" y="13" width="480" height="20"></rect>
            <path d="M220,29 C222.761424,29 225,26.7614239 225,24 C225,21.2385761 222.761424,19 220,19 C217.238576,19 215,21.2385761 215,24 C215,26.7614239 217.238576,29 220,29 Z" id="Oval-1" fill="#E74C3C" sketch:type="MSShapeGroup"></path>
            <circle id="Oval-1" fill="#F1C40F" sketch:type="MSShapeGroup" cx="241" cy="24" r="5"></circle>
            <circle id="Oval-1" fill="#2ECC71" sketch:type="MSShapeGroup" cx="262" cy="24" r="5"></circle>
        </g>
        <g id="Front-window" sketch:type="MSLayerGroup" transform="translate(246.000000, 122.000000)">
            <rect id="Rectangle-4" stroke="#979797" fill="#D8D8D8" sketch:type="MSShapeGroup" x="0" y="0" width="508" height="304" rx="8"></rect>
            <rect id="Rectangle-2" fill="#2C3E50" sketch:type="MSShapeGroup" x="14" y="36" width="480" height="243"></rect>
            <rect id="Rectangle-3" fill="#494949" sketch:type="MSShapeGroup" x="14" y="13" width="480" height="23"></rect>
            <path d="M26,29 C28.7614239,29 31,26.7614239 31,24 C31,21.2385761 28.7614239,19 26,19 C23.2385761,19 21,21.2385761 21,24 C21,26.7614239 23.2385761,29 26,29 Z" id="Oval-1" fill="#E74C3C" sketch:type="MSShapeGroup"></path>
            <circle id="Oval-1" fill="#F1C40F" sketch:type="MSShapeGroup" cx="47" cy="24" r="5"></circle>
            <circle id="Oval-1" fill="#2ECC71" sketch:type="MSShapeGroup" cx="68" cy="24" r="5"></circle>
            <g id="UI" transform="translate(14.000000, 81.000000)" sketch:type="MSShapeGroup">
                <g id="circle-chart" transform="translate(0.000000, 89.000000)" stroke="#ECF0F1">
                    <path d="M47.2606513,14.1855253 C44.5217968,9.94982657 39.7689807,7.14814815 34.3644068,7.14814815 C34.2686621,7.14814815 34.173122,7.14902742 34.077794,7.15077837 L34.077794,22.3546129 L47.2606514,14.1855254 Z" id="Oval-10" transform="translate(37.500000, 21.000000) rotate(-345.000000) translate(-37.500000, -21.000000) "></path>
                    <path d="M44.2606513,17.1855253 C45.8219742,19.6001455 46.7288136,22.4807839 46.7288136,25.5740741 C46.7288136,34.0935781 39.8499348,41 31.3644068,41 C22.8788788,41 16,34.0935781 16,25.5740741 C16,17.1506981 22.7245218,10.3042078 31.077794,10.1507784 L31.077794,25.3546129 L44.2606514,17.1855254 Z" id="Oval-10" transform="translate(34.500000, 24.000000) rotate(-345.000000) translate(-34.500000, -24.000000) "></path>
                </g>
                <g id="line-chart" transform="translate(0.000000, 46.000000)">
                    <path d="M11.7978516,29.6201172 L22.0039062,19.4267578 L26.1035156,26.2070312 L30.8134766,13.2216797 L37.2685547,26.8925781 L53.7314453,15.6523438" id="Path-1" stroke="#E74C3C" stroke-width="2"></path>
                    <rect id="Rectangle-11" fill="#E74C3C" x="0" y="0" width="4" height="42"></rect>
                </g>
                <g id="bar-chart" stroke="#ECF0F1">
                    <rect id="Rectangle-20" x="16" y="14" width="10" height="23"></rect>
                    <rect id="Rectangle-21" x="27" y="9" width="11" height="28"></rect>
                    <rect id="Rectangle-21" x="39" y="18" width="10" height="19"></rect>
                </g>
            </g>
            <g id="Logo" transform="translate(22.000000, 44.000000)" sketch:type="MSShapeGroup">
                <path d="M8,6 L8,19.9736328 L14,26 L14,6 L8,6 Z" id="Rectangle-4" fill="#3498DB" transform="translate(11.000000, 16.000000) rotate(-90.000000) translate(-11.000000, -16.000000) "></path>
                <path d="M15,6.03942871 L15,12.8890381 L21,19 L21,0 L15,6.03942871 Z" id="Rectangle-4" fill="#2980B9" transform="translate(18.000000, 9.500000) rotate(-180.000000) translate(-18.000000, -9.500000) "></path>
                <path d="M7.5,-1.47070312 L7.5,7.44481706 L13.5,13.4356689 L13.5,-7.5 L7.5,-1.47070312 Z" id="Rectangle-4" fill="#3498DB" transform="translate(10.500000, 3.000000) rotate(-270.000000) translate(-10.500000, -3.000000) "></path>
                <path d="M0,6.03027344 L0,10.4033203 L0,23 L6,23 L6,0 L0,6.03027344 Z" id="Rectangle-4" fill="#2980B9"></path>
            </g>
        </g>
    </g>
</svg>